<?xml version="1.0" encoding="utf-8"?>
<svg version="1.1" xmlns:xlink="http://www.w3.org/1999/xlink" width="12px" height="12px" xmlns="http://www.w3.org/2000/svg">
  <defs>
    <mask fill="white" id="clip23">
      <path d="M 0 6  C 0 9.3137084988  2.6862915012000004 12  6 12  C 9.3137084988 12  12 9.3137084988  12 6  C 12 2.6862915012000004  9.3137084988 0  6 0  C 2.6862915012000004 0  0 2.6862915012000004  0 6  Z " fill-rule="evenodd" />
    </mask>
  </defs>
  <g transform="matrix(1 0 0 1 -916 -20 )">
    <path d="M 0 6  C 0 9.3137084988  2.6862915012000004 12  6 12  C 9.3137084988 12  12 9.3137084988  12 6  C 12 2.6862915012000004  9.3137084988 0  6 0  C 2.6862915012000004 0  0 2.6862915012000004  0 6  Z " fill-rule="nonzero" fill="#404040" stroke="none" transform="matrix(1 0 0 1 916 20 )" />
    <path d="M 0 6  C 0 9.3137084988  2.6862915012000004 12  6 12  C 9.3137084988 12  12 9.3137084988  12 6  C 12 2.6862915012000004  9.3137084988 0  6 0  C 2.6862915012000004 0  0 2.6862915012000004  0 6  Z " stroke-width="4" stroke="#404040" fill="none" transform="matrix(1 0 0 1 916 20 )" mask="url(#clip23)" />
  </g>
</svg>