<?xml version="1.0" encoding="utf-8"?>
<svg version="1.1" xmlns:xlink="http://www.w3.org/1999/xlink" width="14px" height="6px" xmlns="http://www.w3.org/2000/svg">
  <defs>
    <mask fill="white" id="clip26">
      <path d="M 13.999999999999982 6  L 0.00011739700999253985 6  C 0.00011739700999253985 6  0.9861703048281127 0  6.992858962283851 0  C 12.999547619739587 0  13.999999999999982 6  13.999999999999982 6  Z " fill-rule="evenodd" />
    </mask>
  </defs>
  <g transform="matrix(1 0 0 1 -903 -32 )">
    <path d="M 13.999999999999982 6  L 0.00011739700999253985 6  C 0.00011739700999253985 6  0.9861703048281127 0  6.992858962283851 0  C 12.999547619739587 0  13.999999999999982 6  13.999999999999982 6  Z " fill-rule="nonzero" fill="#ffffff" stroke="none" fill-opacity="0" transform="matrix(1 0 0 1 903 32 )" />
    <path d="M 13.999999999999982 6  L 0.00011739700999253985 6  C 0.00011739700999253985 6  0.9861703048281127 0  6.992858962283851 0  C 12.999547619739587 0  13.999999999999982 6  13.999999999999982 6  Z " stroke-width="3" stroke="#404040" fill="none" transform="matrix(1 0 0 1 903 32 )" mask="url(#clip26)" />
  </g>
</svg>