<?xml version="1.0" encoding="utf-8"?>
<svg version="1.1" xmlns:xlink="http://www.w3.org/1999/xlink" width="17px" height="10px" xmlns="http://www.w3.org/2000/svg">
  <g transform="matrix(1 0 0 1 -6 -5 )">
    <path d="M 3 9.099999999999909  C 3 9.603999999999814  2.5599999999999454 10  2 10  L 1 10  C 0.44000000000005457 10  0 9.603999999999814  0 9.099999999999909  L 0 6.400000000000091  C 0 5.8960000000001855  0.44000000000005457 5.5  1 5.5  L 2 5.5  C 2.5599999999999454 5.5  3 5.8960000000001855  3 6.400000000000091  L 3 9.099999999999909  Z M 7.5 9  C 7.5 9.559999999999945  7.059999999999945 10  6.5 10  L 5.5 10  C 4.940000000000055 10  4.5 9.559999999999945  4.5 9  L 4.5 5  C 4.5 4.440000000000055  4.940000000000055 4  5.5 4  L 6.5 4  C 7.059999999999945 4  7.5 4.440000000000055  7.5 5  L 7.5 9  Z M 11 10  L 10 10  C 9.440000000000055 10  9 9.559999999999945  9 9  L 9 3  C 9 2.4400000000000546  9.440000000000055 2  10 2  L 11 2  C 11.559999999999945 2  12 2.4400000000000546  12 3  L 12 9  C 12 9.559999999999945  11.559999999999945 10  11 10  Z M 14.5 10  C 13.940000000000055 10  13.5 9.559999999999945  13.5 9  L 13.5 1  C 13.5 0.44000000000005457  13.940000000000055 0  14.5 0  L 15.5 0  C 16.059999999999945 0  16.5 0.44000000000005457  16.5 1  L 16.5 9  C 16.5 9.559999999999945  16.059999999999945 10  15.5 10  L 14.5 10  Z " fill-rule="nonzero" fill="#000000" stroke="none" transform="matrix(1 0 0 1 6 5 )" />
  </g>
</svg>