<?xml version="1.0" encoding="utf-8"?>
<svg version="1.1" xmlns:xlink="http://www.w3.org/1999/xlink" width="15px" height="10px" xmlns="http://www.w3.org/2000/svg">
  <g transform="matrix(1 0 0 1 -71 -5 )">
    <path d="M 7.5 2  C 5.279981701820361 2  3.258743597460466 2.8510791822779993  1.7447616168768718 4.2447616168769855  C 1.7447616168768718 4.2447616168769855  0.32956276465324663 2.829562764653474  0.32956276467052703 2.8295627646373305  C 2.2063160537353497 1.0744125659930432  4.727686776625887 0  7.5 0  C 10.272313223382525 0  12.793683946279998 1.074412565999637  14.67043723534664 2.8295627646532466  C 14.67043723534664 2.8295627646532466  13.255238383123015 4.2447616168769855  13.255238383123015 4.2447616168769855  C 11.74125640253942 2.8510791822779993  9.720018298179525 2  7.5 2  Z M 10.776738445456658 6.723261554543342  C 9.899199180832397 5.9612427815291085  8.753464102332032 5.5  7.5 5.5  C 6.246535897667968 5.5  5.100800819167603 5.961242781529336  4.2232615545434555 6.723261554543342  C 4.2232615545434555 6.723261554543342  2.8065308699933667 5.306530869993367  2.8065308699933667 5.306530869993367  C 4.048122533379001 4.1837739933655484  5.694209280082191 3.5  7.5 3.5  C 9.305790719917923 3.5  10.951877466621113 4.1837739933655484  12.193469130006633 5.306530869993367  C 12.193469130006633 5.306530869993367  10.776738445456658 6.723261554543342  10.776738445456658 6.723261554543342  Z M 7.5 10  L 5.287708840249138 7.787708840248797  C 5.890654007528042 7.295323923940487  6.6608387046358075 7  7.5 7  C 8.339161295364192 7  9.109345992471958 7.295323923940487  9.712291159750862 7.787708840248797  C 9.712291159750862 7.787708840248797  7.5 10  7.5 10  Z " fill-rule="nonzero" fill="#000000" stroke="none" transform="matrix(1 0 0 1 71 5 )" />
  </g>
</svg>