<?xml version="1.0" encoding="utf-8"?>
<svg version="1.1" xmlns:xlink="http://www.w3.org/1999/xlink" width="50px" height="50px" xmlns="http://www.w3.org/2000/svg">
  <g transform="matrix(1 0 0 1 -270 -118 )">
    <path d="M 295 118  C 309 118  320 129  320 143  C 320 157  309 168  295 168  C 281 168  270 157  270 143  C 270 129  281 118  295 118  Z " fill-rule="nonzero" fill="#f59a23" stroke="none" />
    <path d="M 295 118.5  C 308.72 118.5  319.5 129.28  319.5 143  C 319.5 156.72  308.72 167.5  295 167.5  C 281.28 167.5  270.5 156.72  270.5 143  C 270.5 129.28  281.28 118.5  295 118.5  Z " stroke-width="1" stroke="#797979" fill="none" />
  </g>
</svg>